Coordinates
version=1
nRows=43
nColumns=12
inDegrees=yes

Units are S.I. units (second, meters, Newtons, ...)
Angles are in degrees

endheader
time	SC_y	SC_z	SC_x	AC_y	AC_z	AC_x	GH_y	GH_z	GH_yy	EL_x	PS_y
       0.0              -53.14          14.45          7.752          54.59         -5.698          4.219         -150.2          2.066         -145.5          89.39          94.11
   0.04984              -53.14          14.45           7.76          54.59           -5.7          4.221         -150.2          2.078         -145.4          89.39          94.11
   0.09969              -53.14          14.45          7.769          54.59         -5.702          4.223         -150.2          2.091         -145.4          89.39           94.1
    0.1495              -53.14          14.46          7.778          54.58         -5.703          4.226         -150.2          2.104         -145.3          89.39          94.09
    0.1994              -53.14          14.46          7.787          54.58         -5.705          4.228         -150.2          2.118         -145.3          89.39          94.08
    0.2492              -53.14          14.46          7.798          54.58         -5.707          4.231         -150.1          2.134         -145.3          89.39          94.07
    0.2991              -53.14          14.46          7.809          54.58          -5.71          4.233         -150.1           2.15         -145.2          89.39          94.06
    0.3489              -53.14          14.47           7.82          54.58         -5.712          4.236         -150.1          2.167         -145.2          89.39          94.05
    0.3988              -53.14          14.47          7.833          54.57         -5.715          4.239         -150.1          2.186         -145.1          89.39          94.03
    0.4486              -53.14          14.47          7.846          54.57         -5.717          4.243         -150.1          2.206         -145.0           89.4          94.02
    0.4984              -53.14          14.47          7.861          54.57          -5.72          4.246         -150.1          2.228         -145.0           89.4          94.01
    0.5483              -53.14          14.48          7.876          54.57         -5.723           4.25         -150.1          2.251         -144.9           89.4          93.99
    0.5981              -53.14          14.48          7.893          54.56         -5.727          4.254         -150.1          2.276         -144.8           89.4          93.97
     0.648              -53.15          14.48          7.911          54.56          -5.73          4.259         -150.0          2.303         -144.7           89.4          93.96
    0.6978              -53.15          14.49          7.931          54.55         -5.734          4.264         -150.0          2.332         -144.7           89.4          93.94
    0.7477              -53.15          14.49          7.952          54.55         -5.739          4.269         -150.0          2.364         -144.6          89.41          93.92
    0.7975              -53.15           14.5          7.975          54.55         -5.743          4.275         -150.0          2.398         -144.5          89.41          93.89
    0.8474              -53.15           14.5            8.0          54.54         -5.748          4.281         -150.0          2.435         -144.3          89.41          93.87
    0.8972              -53.15          14.51          8.027          54.54         -5.754          4.288         -149.9          2.476         -144.2          89.41          93.84
    0.9471              -53.16          14.52          8.058          54.53          -5.76          4.295         -149.9          2.521         -144.1          89.42          93.81
    0.9969              -53.16          14.52          8.091          54.52         -5.767          4.303         -149.9           2.57         -143.9          89.42          93.78
     1.047              -53.16          14.53          8.127          54.52         -5.774          4.312         -149.9          2.624         -143.8          89.42          93.74
     1.097              -53.16          14.54          8.167          54.51         -5.782          4.322         -149.8          2.684         -143.6          89.43          93.71
     1.146              -53.16          14.55          8.211           54.5         -5.791          4.333         -149.8          2.751         -143.4          89.43          93.66
     1.196              -53.17          14.56          8.261          54.49         -5.801          4.346         -149.7          2.824         -143.2          89.44          93.61
     1.246              -53.17          14.57          8.316          54.48         -5.812          4.359         -149.7          2.906         -142.9          89.44          93.56
     1.296              -53.18          14.58          8.378          54.47         -5.825          4.375         -149.6          2.998         -142.6          89.45           93.5
     1.346              -53.18           14.6          8.447          54.45         -5.839          4.392         -149.6          3.102         -142.3          89.46          93.43
     1.396              -53.19          14.62          8.525          54.44         -5.855          4.412         -149.5          3.219         -142.0          89.46          93.35
     1.446              -53.19          14.63          8.615          54.42         -5.873          4.434         -149.4          3.352         -141.6          89.47          93.27
     1.495               -53.2          14.66          8.716           54.4         -5.893          4.459         -149.3          3.504         -141.1          89.48          93.17
     1.545               -53.2          14.68          8.833          54.38         -5.917          4.488         -149.2          3.678         -140.6           89.5          93.05
     1.595              -53.21          14.71          8.968          54.35         -5.944          4.522         -149.1          3.879         -140.0          89.51          92.92
     1.645              -53.22          14.74          9.124          54.32         -5.976          4.561         -149.0          4.112         -139.2          89.52          92.76
     1.695              -53.24          14.78          9.307          54.28         -6.013          4.606         -148.8          4.385         -138.4          89.54          92.58
     1.745              -53.25          14.83          9.523          54.24         -6.057           4.66         -148.7          4.708         -137.4          89.56          92.37
     1.794              -53.27          14.88           9.78          54.19         -6.109          4.724         -148.4           5.09         -136.3          89.59          92.12
     1.844              -53.29          14.95          10.09          54.13         -6.171            4.8         -148.2          5.549         -134.9          89.62          91.82
     1.894              -53.31          15.03          10.46          54.05         -6.247          4.893         -147.8          6.104         -133.2          89.66          91.45
     1.944              -53.34          15.12          10.91          53.96         -6.339          5.006         -147.4          6.782         -131.1          89.71           91.0
     1.994              -53.38          15.24          11.48          53.85         -6.452          5.146         -147.0          7.619         -128.6          89.76          90.45
     2.044              -53.42          15.39          12.18          53.71         -6.594           5.32         -146.4          8.663         -125.4          89.83          89.76
     2.093              -53.48          15.58          13.06          53.54         -6.772          5.539         -145.6          9.977         -121.4          89.92          88.89
